<?xml version="1.0" standalone="no"?><!DOCTYPE svg PUBLIC "-//W3C//DTD SVG 1.1//EN" "http://www.w3.org/Graphics/SVG/1.1/DTD/svg11.dtd"><svg t="1728058423864" class="icon" viewBox="0 0 1185 1024" version="1.1" xmlns="http://www.w3.org/2000/svg" p-id="5115" xmlns:xlink="http://www.w3.org/1999/xlink" width="231.4453125" height="200"><path d="M91.97491 891.980129h1011.352013a37.713963 37.713963 0 0 0 5.598994-75.003927c-8.419992-262.659743-215.18979-476.089535-475.096536-495.085516v-82.73492a122.55388 122.55388 0 1 0-75.454926 0v82.73492C298.255709 340.912667 91.352911 554.659458 83.250919 817.585202a37.713963 37.713963 0 0 0 8.723991 74.394927zM548.936464 122.55988a47.139954 47.139954 0 1 1 47.138954 47.139954 47.204954 47.204954 0 0 1-47.139954-47.139954z m-293.159714 432.604578a458.788552 458.788552 0 0 1 121.057882-113.10189 464.924546 464.924546 0 0 1 37.395963-21.603979 24.793976 24.793976 0 0 1 22.741978 44.054957c-11.357989 5.849994-22.503978 12.336988-33.358967 19.259982A409.6376 409.6376 0 0 0 295.581711 584.709429a24.779976 24.779976 0 0 1-39.804961-29.545971z m-68.941932 101.319901a457.309553 457.309553 0 0 1 15.448984-34.059967 24.779976 24.779976 0 0 1 44.265957 22.318978 413.572596 413.572596 0 0 0-13.766986 30.339971 24.779976 24.779976 0 0 1-32.272969 13.687986 24.846976 24.846976 0 0 1-13.674986-32.286968z m961.380061 292.061715H37.726963a37.713963 37.713963 0 1 0 0 75.453926h1110.488916a37.713963 37.713963 0 1 0 0-75.453926z" fill="#515151" p-id="5116"></path></svg>